{"title":"The Case Of JonBenet Ramsey - Part 2","uid":15869730,"size":1905915863,"categoryP":"video","categoryS":"tv_shows","magnet":"?xt=urn:btih:d687447cc7f99284b3213dd5b4ba528e6d467f24&amp;dn=The+Case+Of+JonBenet+Ramsey+-+Part+2&amp;tr=udp%3A%2F%2Ftracker.leechers-paradise.org%3A6969&amp;tr=udp%3A%2F%2Fzer0day.ch%3A1337&amp;tr=udp%3A%2F%2Fopen.demonii.com%3A1337&amp;tr=udp%3A%2F%2Ftracker.coppersurfer.tk%3A6969&amp;tr=udp%3A%2F%2Fexodus.desync.com%3A6969","seeders":13,"leechers":4,"uploader":"Bullrout","files":1,"time":1474413862,"description":"The Case Of JonBenet Ramsey - Part 2\r\n\r\nAs the 20th anniversary of her death approaches, this documentary series unites former investigators with new experts to re-examine the unsolved murder of child beauty queen JonBenet Ramsey.\r\n\r\nComplete name : The Case Of JonBenet Ramsey - Part 2.mkv\r\nFormat : Matroska\r\nFormat version : Version 4 / Version 2\r\nFile size : 1.78 GiB\r\nDuration : 1 h 16 min\r\nOverall bit rate mode : Variable\r\nOverall bit rate : 3 303 kb/s\r\nEncoded date : UTC 2016-09-20 20:05:07\r\nWriting application : mkvmerge v9.4.2 ('So High') 64bit\r\nWriting library : libebml v1.3.4 + libmatroska v1.4.5\r\n\r\nVideo\r\nID : 2\r\nFormat : AVC\r\nFormat/Info : Advanced Video Codec\r\nFormat profile :   \r\nFormat settings, CABAC : Yes\r\nFormat settings, ReFrames : 3 frames\r\nCodec ID : V_MPEG4/ISO/AVC\r\nDuration : 1 h 16 min\r\nBit rate mode : Variable\r\nBit rate : 2 917 kb/s\r\nMaximum bit rate : 3 000 kb/s\r\nWidth : 1 280 pixels\r\nHeight : 720 pixels\r\nDisplay aspect ratio : 16:9\r\nFrame rate mode : Constant\r\nFrame rate : 25.000 FPS\r\nStandard : PAL\r\nColor space : YUV\r\nChroma subsampling : 4:2:0\r\nBit depth : 8 bits\r\nScan type : Progressive\r\nBits/(Pixel*Frame) : 0.127\r\nStream size : 1.57 GiB (88%)\r\nWriting library : x264 core 112\r\nDefault : Yes\r\nForced : No\r\nColor range : Limited\r\nColor primaries : BT.709\r\nTransfer characteristics : BT.709\r\nMatrix coefficients : BT.709\r\n\r\nAudio\r\nID : 1\r\nFormat : AC-3\r\nFormat/Info : Audio Coding 3\r\nMode extension : CM (complete main)\r\nFormat settings, Endianness : Big\r\nCodec ID : A_AC3\r\nDuration : 1 h 16 min\r\nBit rate mode : Constant\r\nBit rate : 384 kb/s\r\nChannel(s) : 6 channels\r\nChannel positions : Front: L C R, Side: L R, LFE\r\nSampling rate : 48.0 kHz\r\nFrame rate : 31.250 FPS (1536 spf)\r\nCompression mode : Lossy\r\nStream size : 211 MiB (12%)\r\nDefault : Yes","torrent":{"xt":"urn:btih:d687447cc7f99284b3213dd5b4ba528e6d467f24","amp;dn":"The+Case+Of+JonBenet+Ramsey+-+Part+2","amp;tr":["udp%3A%2F%2Ftracker.leechers-paradise.org%3A6969","udp%3A%2F%2Fzer0day.ch%3A1337","udp%3A%2F%2Fopen.demonii.com%3A1337","udp%3A%2F%2Ftracker.coppersurfer.tk%3A6969","udp%3A%2F%2Fexodus.desync.com%3A6969"],"infoHash":"d687447cc7f99284b3213dd5b4ba528e6d467f24","infoHashBuffer":{"type":"Buffer","data":[214,135,68,124,199,249,146,132,179,33,61,213,180,186,82,142,109,70,127,36]},"announce":[],"urlList":[]}}